STARTFONT 2.1
FONT -FontForge-Bitstream Vera Sans Mono-Book-R-Normal-SansMono--10-100-75-75-P-59-ISO8859-1
SIZE 10 75 75
FONTBOUNDINGBOX 7 12 0 -2
COMMENT "Generated by fontforge, http://fontforge.sourceforge.net"
COMMENT "Copyright (c) 2003 by Bitstream, Inc. All Rights Reserved."
STARTPROPERTIES 40
FOUNDRY "FontForge"
FAMILY_NAME "Bitstream Vera Sans Mono"
WEIGHT_NAME "Book"
SLANT "R"
SETWIDTH_NAME "Normal"
ADD_STYLE_NAME "SansMono"
PIXEL_SIZE 10
POINT_SIZE 100
RESOLUTION_X 75
RESOLUTION_Y 75
SPACING "P"
AVERAGE_WIDTH 59
CHARSET_REGISTRY "ISO8859"
CHARSET_ENCODING "1"
FONTNAME_REGISTRY ""
CHARSET_COLLECTIONS "ISO8859-9 ISOLatin1Encoding"
FONT_NAME "BitstreamVeraSansMono-Roman"
FACE_NAME "Bitstream Vera Sans Mono"
COPYRIGHT "Copyright (c) 2003 by Bitstream, Inc. All Rights Reserved."
FONT_VERSION "Release 1.10"
FONT_ASCENT 8
FONT_DESCENT 2
UNDERLINE_POSITION -1
UNDERLINE_THICKNESS 1
X_HEIGHT 4
CAP_HEIGHT 6
RAW_ASCENT 759
RAW_DESCENT 240
NORM_SPACE 6
RELATIVE_WEIGHT 40
RELATIVE_SETWIDTH 50
SUPERSCRIPT_X 0
SUPERSCRIPT_Y 2
SUPERSCRIPT_SIZE 5
SUBSCRIPT_X 0
SUBSCRIPT_Y -2
SUBSCRIPT_SIZE 5
FIGURE_WIDTH 6
AVG_LOWERCASE_WIDTH 60
AVG_UPPERCASE_WIDTH 60
ENDPROPERTIES
CHARS 269
STARTCHAR space
ENCODING 32
SWIDTH 602 0
DWIDTH 6 0
BBX 1 1 0 0
BITMAP
00
ENDCHAR
STARTCHAR exclam
ENCODING 33
SWIDTH 602 0
DWIDTH 6 0
BBX 1 7 3 0
BITMAP
80
80
80
80
80
00
80
ENDCHAR
STARTCHAR quotedbl
ENCODING 34
SWIDTH 602 0
DWIDTH 6 0
BBX 3 3 2 4
BITMAP
A0
A0
A0
ENDCHAR
STARTCHAR numbersign
ENCODING 35
SWIDTH 602 0
DWIDTH 6 0
BBX 6 7 0 0
BITMAP
28
28
7C
50
F8
50
50
ENDCHAR
STARTCHAR dollar
ENCODING 36
SWIDTH 602 0
DWIDTH 6 0
BBX 5 8 1 -1
BITMAP
20
78
A0
E0
38
28
F0
20
ENDCHAR
STARTCHAR percent
ENCODING 37
SWIDTH 602 0
DWIDTH 6 0
BBX 6 7 0 0
BITMAP
E0
A0
E8
30
5C
14
1C
ENDCHAR
STARTCHAR ampersand
ENCODING 38
SWIDTH 602 0
DWIDTH 6 0
BBX 5 7 1 0
BITMAP
70
40
60
A8
98
90
68
ENDCHAR
STARTCHAR quotesingle
ENCODING 39
SWIDTH 602 0
DWIDTH 6 0
BBX 1 3 3 4
BITMAP
80
80
80
ENDCHAR
STARTCHAR parenleft
ENCODING 40
SWIDTH 602 0
DWIDTH 6 0
BBX 2 9 2 -1
BITMAP
40
80
80
80
80
80
80
80
40
ENDCHAR
STARTCHAR parenright
ENCODING 41
SWIDTH 602 0
DWIDTH 6 0
BBX 2 9 2 -1
BITMAP
80
80
40
40
40
40
40
80
80
ENDCHAR
STARTCHAR asterisk
ENCODING 42
SWIDTH 602 0
DWIDTH 6 0
BBX 5 4 1 3
BITMAP
A8
70
70
A8
ENDCHAR
STARTCHAR plus
ENCODING 43
SWIDTH 602 0
DWIDTH 6 0
BBX 5 5 1 1
BITMAP
20
20
F8
20
20
ENDCHAR
STARTCHAR comma
ENCODING 44
SWIDTH 602 0
DWIDTH 6 0
BBX 1 3 2 -2
BITMAP
80
80
80
ENDCHAR
STARTCHAR hyphen
ENCODING 45
SWIDTH 602 0
DWIDTH 6 0
BBX 3 1 2 2
BITMAP
E0
ENDCHAR
STARTCHAR period
ENCODING 46
SWIDTH 602 0
DWIDTH 6 0
BBX 1 1 2 0
BITMAP
80
ENDCHAR
STARTCHAR slash
ENCODING 47
SWIDTH 602 0
DWIDTH 6 0
BBX 5 8 1 -1
BITMAP
08
10
10
20
20
40
40
80
ENDCHAR
STARTCHAR zero
ENCODING 48
SWIDTH 602 0
DWIDTH 6 0
BBX 5 7 1 0
BITMAP
70
88
88
A8
88
88
70
ENDCHAR
STARTCHAR one
ENCODING 49
SWIDTH 602 0
DWIDTH 6 0
BBX 5 7 1 0
BITMAP
E0
20
20
20
20
20
F8
ENDCHAR
STARTCHAR two
ENCODING 50
SWIDTH 602 0
DWIDTH 6 0
BBX 5 7 1 0
BITMAP
70
88
08
18
30
40
F8
ENDCHAR
STARTCHAR three
ENCODING 51
SWIDTH 602 0
DWIDTH 6 0
BBX 5 7 1 0
BITMAP
70
88
08
70
08
88
70
ENDCHAR
STARTCHAR four
ENCODING 52
SWIDTH 602 0
DWIDTH 6 0
BBX 5 7 1 0
BITMAP
10
30
50
D0
F8
10
10
ENDCHAR
STARTCHAR five
ENCODING 53
SWIDTH 602 0
DWIDTH 6 0
BBX 5 7 1 0
BITMAP
F0
80
F0
08
08
08
F0
ENDCHAR
STARTCHAR six
ENCODING 54
SWIDTH 602 0
DWIDTH 6 0
BBX 5 7 1 0
BITMAP
78
C0
80
F0
88
88
70
ENDCHAR
STARTCHAR seven
ENCODING 55
SWIDTH 602 0
DWIDTH 6 0
BBX 5 7 1 0
BITMAP
F8
18
10
10
20
20
40
ENDCHAR
STARTCHAR eight
ENCODING 56
SWIDTH 602 0
DWIDTH 6 0
BBX 5 7 1 0
BITMAP
70
88
88
70
88
88
70
ENDCHAR
STARTCHAR nine
ENCODING 57
SWIDTH 602 0
DWIDTH 6 0
BBX 5 7 1 0
BITMAP
70
88
88
78
08
18
F0
ENDCHAR
STARTCHAR colon
ENCODING 58
SWIDTH 602 0
DWIDTH 6 0
BBX 1 5 2 0
BITMAP
80
00
00
00
80
ENDCHAR
STARTCHAR semicolon
ENCODING 59
SWIDTH 602 0
DWIDTH 6 0
BBX 1 7 2 -2
BITMAP
80
00
00
00
80
80
80
ENDCHAR
STARTCHAR less
ENCODING 60
SWIDTH 602 0
DWIDTH 6 0
BBX 5 5 1 1
BITMAP
08
70
80
70
08
ENDCHAR
STARTCHAR equal
ENCODING 61
SWIDTH 602 0
DWIDTH 6 0
BBX 5 3 0 2
BITMAP
F8
00
F8
ENDCHAR
STARTCHAR greater
ENCODING 62
SWIDTH 602 0
DWIDTH 6 0
BBX 5 5 1 1
BITMAP
80
70
08
70
80
ENDCHAR
STARTCHAR question
ENCODING 63
SWIDTH 602 0
DWIDTH 6 0
BBX 4 7 1 0
BITMAP
F0
10
20
40
40
00
40
ENDCHAR
STARTCHAR at
ENCODING 64
SWIDTH 602 0
DWIDTH 6 0
BBX 5 9 1 -2
BITMAP
70
48
B8
A8
A8
A8
B8
40
30
ENDCHAR
STARTCHAR A
ENCODING 65
SWIDTH 602 0
DWIDTH 6 0
BBX 5 7 1 0
BITMAP
20
20
50
50
70
88
88
ENDCHAR
STARTCHAR B
ENCODING 66
SWIDTH 602 0
DWIDTH 6 0
BBX 5 7 1 0
BITMAP
F0
88
88
F0
88
88
F0
ENDCHAR
STARTCHAR C
ENCODING 67
SWIDTH 602 0
DWIDTH 6 0
BBX 5 7 1 0
BITMAP
78
C8
80
80
80
C8
78
ENDCHAR
STARTCHAR D
ENCODING 68
SWIDTH 602 0
DWIDTH 6 0
BBX 5 7 1 0
BITMAP
F0
98
88
88
88
98
F0
ENDCHAR
STARTCHAR E
ENCODING 69
SWIDTH 602 0
DWIDTH 6 0
BBX 5 7 1 0
BITMAP
F8
80
80
F8
80
80
F8
ENDCHAR
STARTCHAR F
ENCODING 70
SWIDTH 602 0
DWIDTH 6 0
BBX 5 7 1 0
BITMAP
F8
80
80
F8
80
80
80
ENDCHAR
STARTCHAR G
ENCODING 71
SWIDTH 602 0
DWIDTH 6 0
BBX 5 7 1 0
BITMAP
70
C8
80
98
88
C8
78
ENDCHAR
STARTCHAR H
ENCODING 72
SWIDTH 602 0
DWIDTH 6 0
BBX 5 7 1 0
BITMAP
88
88
88
F8
88
88
88
ENDCHAR
STARTCHAR I
ENCODING 73
SWIDTH 602 0
DWIDTH 6 0
BBX 5 7 1 0
BITMAP
F8
20
20
20
20
20
F8
ENDCHAR
STARTCHAR J
ENCODING 74
SWIDTH 602 0
DWIDTH 6 0
BBX 4 7 1 0
BITMAP
70
10
10
10
10
90
60
ENDCHAR
STARTCHAR K
ENCODING 75
SWIDTH 602 0
DWIDTH 6 0
BBX 5 7 1 0
BITMAP
88
90
A0
C0
A0
90
88
ENDCHAR
STARTCHAR L
ENCODING 76
SWIDTH 602 0
DWIDTH 6 0
BBX 5 7 1 0
BITMAP
80
80
80
80
80
80
F8
ENDCHAR
STARTCHAR M
ENCODING 77
SWIDTH 602 0
DWIDTH 6 0
BBX 5 7 1 0
BITMAP
88
D8
D8
A8
88
88
88
ENDCHAR
STARTCHAR N
ENCODING 78
SWIDTH 602 0
DWIDTH 6 0
BBX 5 7 1 0
BITMAP
88
C8
C8
A8
98
98
88
ENDCHAR
STARTCHAR O
ENCODING 79
SWIDTH 602 0
DWIDTH 6 0
BBX 5 7 1 0
BITMAP
70
88
88
88
88
88
70
ENDCHAR
STARTCHAR P
ENCODING 80
SWIDTH 602 0
DWIDTH 6 0
BBX 5 7 1 0
BITMAP
F0
88
88
F0
80
80
80
ENDCHAR
STARTCHAR Q
ENCODING 81
SWIDTH 602 0
DWIDTH 6 0
BBX 5 8 1 -1
BITMAP
70
88
88
88
88
88
70
18
ENDCHAR
STARTCHAR R
ENCODING 82
SWIDTH 602 0
DWIDTH 6 0
BBX 6 7 1 0
BITMAP
F0
88
88
F0
98
88
84
ENDCHAR
STARTCHAR S
ENCODING 83
SWIDTH 602 0
DWIDTH 6 0
BBX 5 7 1 0
BITMAP
70
88
80
70
08
88
70
ENDCHAR
STARTCHAR T
ENCODING 84
SWIDTH 602 0
DWIDTH 6 0
BBX 5 7 1 0
BITMAP
F8
20
20
20
20
20
20
ENDCHAR
STARTCHAR U
ENCODING 85
SWIDTH 602 0
DWIDTH 6 0
BBX 5 7 1 0
BITMAP
88
88
88
88
88
88
70
ENDCHAR
STARTCHAR V
ENCODING 86
SWIDTH 602 0
DWIDTH 6 0
BBX 5 7 1 0
BITMAP
88
88
50
50
50
20
20
ENDCHAR
STARTCHAR W
ENCODING 87
SWIDTH 602 0
DWIDTH 6 0
BBX 6 7 0 0
BITMAP
84
B4
B4
78
48
48
48
ENDCHAR
STARTCHAR X
ENCODING 88
SWIDTH 602 0
DWIDTH 6 0
BBX 5 7 1 0
BITMAP
88
50
50
20
50
50
88
ENDCHAR
STARTCHAR Y
ENCODING 89
SWIDTH 602 0
DWIDTH 6 0
BBX 5 7 1 0
BITMAP
88
50
50
20
20
20
20
ENDCHAR
STARTCHAR Z
ENCODING 90
SWIDTH 602 0
DWIDTH 6 0
BBX 5 7 1 0
BITMAP
F8
10
10
20
40
40
F8
ENDCHAR
STARTCHAR bracketleft
ENCODING 91
SWIDTH 602 0
DWIDTH 6 0
BBX 2 9 2 -1
BITMAP
C0
80
80
80
80
80
80
80
C0
ENDCHAR
STARTCHAR backslash
ENCODING 92
SWIDTH 602 0
DWIDTH 6 0
BBX 5 8 1 -1
BITMAP
80
40
40
20
20
10
10
08
ENDCHAR
STARTCHAR bracketright
ENCODING 93
SWIDTH 602 0
DWIDTH 6 0
BBX 2 9 2 -1
BITMAP
C0
40
40
40
40
40
40
40
C0
ENDCHAR
STARTCHAR asciicircum
ENCODING 94
SWIDTH 602 0
DWIDTH 6 0
BBX 5 3 0 4
BITMAP
20
50
88
ENDCHAR
STARTCHAR underscore
ENCODING 95
SWIDTH 602 0
DWIDTH 6 0
BBX 5 1 0 -2
BITMAP
F8
ENDCHAR
STARTCHAR grave
ENCODING 96
SWIDTH 602 0
DWIDTH 6 0
BBX 2 2 1 6
BITMAP
80
40
ENDCHAR
STARTCHAR a
ENCODING 97
SWIDTH 602 0
DWIDTH 6 0
BBX 5 5 1 0
BITMAP
F0
08
78
88
F8
ENDCHAR
STARTCHAR b
ENCODING 98
SWIDTH 602 0
DWIDTH 6 0
BBX 5 8 1 0
BITMAP
80
80
80
F0
88
88
88
F0
ENDCHAR
STARTCHAR c
ENCODING 99
SWIDTH 602 0
DWIDTH 6 0
BBX 4 5 1 0
BITMAP
70
80
80
80
70
ENDCHAR
STARTCHAR d
ENCODING 100
SWIDTH 602 0
DWIDTH 6 0
BBX 5 8 1 0
BITMAP
08
08
08
78
88
88
88
78
ENDCHAR
STARTCHAR e
ENCODING 101
SWIDTH 602 0
DWIDTH 6 0
BBX 5 5 1 0
BITMAP
70
88
F8
80
78
ENDCHAR
STARTCHAR f
ENCODING 102
SWIDTH 602 0
DWIDTH 6 0
BBX 4 8 1 0
BITMAP
30
40
40
F0
40
40
40
40
ENDCHAR
STARTCHAR g
ENCODING 103
SWIDTH 602 0
DWIDTH 6 0
BBX 5 7 1 -2
BITMAP
78
88
88
88
78
08
70
ENDCHAR
STARTCHAR h
ENCODING 104
SWIDTH 602 0
DWIDTH 6 0
BBX 5 8 1 0
BITMAP
80
80
80
B0
C8
88
88
88
ENDCHAR
STARTCHAR i
ENCODING 105
SWIDTH 602 0
DWIDTH 6 0
BBX 5 8 1 0
BITMAP
20
00
00
60
20
20
20
F8
ENDCHAR
STARTCHAR j
ENCODING 106
SWIDTH 602 0
DWIDTH 6 0
BBX 3 10 1 -2
BITMAP
20
00
00
E0
20
20
20
20
20
C0
ENDCHAR
STARTCHAR k
ENCODING 107
SWIDTH 602 0
DWIDTH 6 0
BBX 5 8 1 0
BITMAP
80
80
80
90
A0
E0
90
88
ENDCHAR
STARTCHAR l
ENCODING 108
SWIDTH 602 0
DWIDTH 6 0
BBX 5 8 0 0
BITMAP
E0
20
20
20
20
20
20
18
ENDCHAR
STARTCHAR m
ENCODING 109
SWIDTH 602 0
DWIDTH 6 0
BBX 5 5 1 0
BITMAP
F8
A8
A8
A8
A8
ENDCHAR
STARTCHAR n
ENCODING 110
SWIDTH 602 0
DWIDTH 6 0
BBX 5 5 1 0
BITMAP
B0
C8
88
88
88
ENDCHAR
STARTCHAR o
ENCODING 111
SWIDTH 602 0
DWIDTH 6 0
BBX 5 5 1 0
BITMAP
70
88
88
88
70
ENDCHAR
STARTCHAR p
ENCODING 112
SWIDTH 602 0
DWIDTH 6 0
BBX 5 7 1 -2
BITMAP
F0
88
88
88
F0
80
80
ENDCHAR
STARTCHAR q
ENCODING 113
SWIDTH 602 0
DWIDTH 6 0
BBX 5 7 1 -2
BITMAP
78
88
88
88
78
08
08
ENDCHAR
STARTCHAR r
ENCODING 114
SWIDTH 602 0
DWIDTH 6 0
BBX 4 5 2 0
BITMAP
F0
90
80
80
80
ENDCHAR
STARTCHAR s
ENCODING 115
SWIDTH 602 0
DWIDTH 6 0
BBX 5 5 1 0
BITMAP
78
80
78
08
F0
ENDCHAR
STARTCHAR t
ENCODING 116
SWIDTH 602 0
DWIDTH 6 0
BBX 4 7 1 0
BITMAP
40
40
F0
40
40
40
70
ENDCHAR
STARTCHAR u
ENCODING 117
SWIDTH 602 0
DWIDTH 6 0
BBX 5 5 1 0
BITMAP
88
88
88
88
78
ENDCHAR
STARTCHAR v
ENCODING 118
SWIDTH 602 0
DWIDTH 6 0
BBX 5 5 1 0
BITMAP
88
50
50
50
20
ENDCHAR
STARTCHAR w
ENCODING 119
SWIDTH 602 0
DWIDTH 6 0
BBX 5 5 1 0
BITMAP
88
A8
50
50
50
ENDCHAR
STARTCHAR x
ENCODING 120
SWIDTH 602 0
DWIDTH 6 0
BBX 5 5 1 0
BITMAP
D8
50
20
50
D8
ENDCHAR
STARTCHAR y
ENCODING 121
SWIDTH 602 0
DWIDTH 6 0
BBX 5 7 1 -2
BITMAP
88
50
50
20
20
20
C0
ENDCHAR
STARTCHAR z
ENCODING 122
SWIDTH 602 0
DWIDTH 6 0
BBX 5 5 1 0
BITMAP
F8
10
20
40
F8
ENDCHAR
STARTCHAR braceleft
ENCODING 123
SWIDTH 602 0
DWIDTH 6 0
BBX 4 9 1 -1
BITMAP
30
20
20
20
C0
20
20
20
30
ENDCHAR
STARTCHAR bar
ENCODING 124
SWIDTH 602 0
DWIDTH 6 0
BBX 1 10 3 -2
BITMAP
80
80
80
80
80
80
80
80
80
80
ENDCHAR
STARTCHAR braceright
ENCODING 125
SWIDTH 602 0
DWIDTH 6 0
BBX 4 9 2 -1
BITMAP
C0
40
40
40
30
40
40
40
C0
ENDCHAR
STARTCHAR asciitilde
ENCODING 126
SWIDTH 602 0
DWIDTH 6 0
BBX 5 2 1 2
BITMAP
E0
18
ENDCHAR
STARTCHAR nonbreakingspace
ENCODING 160
SWIDTH 602 0
DWIDTH 6 0
BBX 1 1 0 0
BITMAP
00
ENDCHAR
STARTCHAR exclamdown
ENCODING 161
SWIDTH 602 0
DWIDTH 6 0
BBX 1 7 3 0
BITMAP
80
00
80
80
80
80
80
ENDCHAR
STARTCHAR cent
ENCODING 162
SWIDTH 602 0
DWIDTH 6 0
BBX 4 8 1 -2
BITMAP
20
70
A0
A0
A0
70
20
20
ENDCHAR
STARTCHAR sterling
ENCODING 163
SWIDTH 602 0
DWIDTH 6 0
BBX 5 7 1 0
BITMAP
38
40
40
F0
40
40
F8
ENDCHAR
STARTCHAR currency
ENCODING 164
SWIDTH 602 0
DWIDTH 6 0
BBX 5 5 1 1
BITMAP
88
70
50
70
88
ENDCHAR
STARTCHAR yen
ENCODING 165
SWIDTH 602 0
DWIDTH 6 0
BBX 5 7 1 0
BITMAP
88
50
D8
20
F8
20
20
ENDCHAR
STARTCHAR brokenbar
ENCODING 166
SWIDTH 602 0
DWIDTH 6 0
BBX 1 9 3 -2
BITMAP
80
80
80
80
00
80
80
80
80
ENDCHAR
STARTCHAR section
ENCODING 167
SWIDTH 602 0
DWIDTH 6 0
BBX 4 8 1 -1
BITMAP
F0
80
60
B0
D0
20
10
F0
ENDCHAR
STARTCHAR dieresis
ENCODING 168
SWIDTH 602 0
DWIDTH 6 0
BBX 3 1 2 6
BITMAP
A0
ENDCHAR
STARTCHAR copyright
ENCODING 169
SWIDTH 602 0
DWIDTH 6 0
BBX 6 7 0 0
BITMAP
78
58
A4
A4
9C
48
78
ENDCHAR
STARTCHAR ordfeminine
ENCODING 170
SWIDTH 602 0
DWIDTH 6 0
BBX 4 6 1 1
BITMAP
F0
F0
90
F0
00
F0
ENDCHAR
STARTCHAR guillemotleft
ENCODING 171
SWIDTH 602 0
DWIDTH 6 0
BBX 4 4 1 1
BITMAP
50
A0
A0
50
ENDCHAR
STARTCHAR logicalnot
ENCODING 172
SWIDTH 602 0
DWIDTH 6 0
BBX 5 2 1 2
BITMAP
F8
08
ENDCHAR
STARTCHAR sfthyphen
ENCODING 173
SWIDTH 602 0
DWIDTH 6 0
BBX 3 1 2 2
BITMAP
E0
ENDCHAR
STARTCHAR registered
ENCODING 174
SWIDTH 602 0
DWIDTH 6 0
BBX 6 7 0 0
BITMAP
78
78
BC
B4
AC
48
78
ENDCHAR
STARTCHAR macron
ENCODING 175
SWIDTH 602 0
DWIDTH 6 0
BBX 3 1 2 6
BITMAP
E0
ENDCHAR
STARTCHAR degree
ENCODING 176
SWIDTH 602 0
DWIDTH 6 0
BBX 3 3 1 4
BITMAP
E0
A0
E0
ENDCHAR
STARTCHAR plusminus
ENCODING 177
SWIDTH 602 0
DWIDTH 6 0
BBX 5 6 1 0
BITMAP
20
20
F8
20
20
F8
ENDCHAR
STARTCHAR twosuperior
ENCODING 178
SWIDTH 602 0
DWIDTH 6 0
BBX 3 4 2 3
BITMAP
E0
20
40
E0
ENDCHAR
STARTCHAR threesuperior
ENCODING 179
SWIDTH 602 0
DWIDTH 6 0
BBX 3 4 2 3
BITMAP
E0
40
20
E0
ENDCHAR
STARTCHAR acute
ENCODING 180
SWIDTH 602 0
DWIDTH 6 0
BBX 2 2 2 6
BITMAP
40
80
ENDCHAR
STARTCHAR mu
ENCODING 181
SWIDTH 602 0
DWIDTH 6 0
BBX 6 7 1 -2
BITMAP
88
88
88
88
FC
80
80
ENDCHAR
STARTCHAR paragraph
ENCODING 182
SWIDTH 602 0
DWIDTH 6 0
BBX 5 8 1 -1
BITMAP
78
E8
E8
68
28
28
28
28
ENDCHAR
STARTCHAR periodcentered
ENCODING 183
SWIDTH 602 0
DWIDTH 6 0
BBX 1 2 2 2
BITMAP
80
80
ENDCHAR
STARTCHAR cedilla
ENCODING 184
SWIDTH 602 0
DWIDTH 6 0
BBX 2 2 2 -2
BITMAP
40
C0
ENDCHAR
STARTCHAR onesuperior
ENCODING 185
SWIDTH 602 0
DWIDTH 6 0
BBX 3 4 2 3
BITMAP
C0
40
40
E0
ENDCHAR
STARTCHAR ordmasculine
ENCODING 186
SWIDTH 602 0
DWIDTH 6 0
BBX 4 6 1 1
BITMAP
60
90
90
60
00
F0
ENDCHAR
STARTCHAR guillemotright
ENCODING 187
SWIDTH 602 0
DWIDTH 6 0
BBX 4 4 1 1
BITMAP
A0
50
50
A0
ENDCHAR
STARTCHAR onequarter
ENCODING 188
SWIDTH 602 0
DWIDTH 6 0
BBX 6 10 0 -2
BITMAP
60
20
20
70
38
E0
08
38
3C
08
ENDCHAR
STARTCHAR onehalf
ENCODING 189
SWIDTH 602 0
DWIDTH 6 0
BBX 6 10 0 -2
BITMAP
60
20
20
70
38
E0
1C
04
08
1C
ENDCHAR
STARTCHAR threequarters
ENCODING 190
SWIDTH 602 0
DWIDTH 6 0
BBX 6 10 0 -2
BITMAP
70
20
10
70
38
E0
08
38
3C
08
ENDCHAR
STARTCHAR questiondown
ENCODING 191
SWIDTH 602 0
DWIDTH 6 0
BBX 4 7 1 0
BITMAP
20
00
20
20
40
80
F0
ENDCHAR
STARTCHAR Agrave
ENCODING 192
SWIDTH 602 0
DWIDTH 6 0
BBX 5 10 1 0
BITMAP
40
20
00
20
20
50
50
70
88
88
ENDCHAR
STARTCHAR Aacute
ENCODING 193
SWIDTH 602 0
DWIDTH 6 0
BBX 5 10 1 0
BITMAP
10
20
00
20
20
50
50
70
88
88
ENDCHAR
STARTCHAR Acircumflex
ENCODING 194
SWIDTH 602 0
DWIDTH 6 0
BBX 5 10 1 0
BITMAP
20
50
00
20
20
50
50
70
88
88
ENDCHAR
STARTCHAR Atilde
ENCODING 195
SWIDTH 602 0
DWIDTH 6 0
BBX 5 10 1 0
BITMAP
50
A0
00
20
20
50
50
70
88
88
ENDCHAR
STARTCHAR Adieresis
ENCODING 196
SWIDTH 602 0
DWIDTH 6 0
BBX 5 9 1 0
BITMAP
50
00
20
20
50
50
70
88
88
ENDCHAR
STARTCHAR Aring
ENCODING 197
SWIDTH 602 0
DWIDTH 6 0
BBX 5 9 1 0
BITMAP
70
50
20
20
50
50
70
88
88
ENDCHAR
STARTCHAR AE
ENCODING 198
SWIDTH 602 0
DWIDTH 6 0
BBX 6 7 0 0
BITMAP
3C
30
50
5C
70
90
9C
ENDCHAR
STARTCHAR Ccedilla
ENCODING 199
SWIDTH 602 0
DWIDTH 6 0
BBX 5 9 1 -2
BITMAP
78
C8
80
80
80
C8
78
20
60
ENDCHAR
STARTCHAR Egrave
ENCODING 200
SWIDTH 602 0
DWIDTH 6 0
BBX 5 10 1 0
BITMAP
40
20
00
F8
80
80
F8
80
80
F8
ENDCHAR
STARTCHAR Eacute
ENCODING 201
SWIDTH 602 0
DWIDTH 6 0
BBX 5 10 1 0
BITMAP
10
20
00
F8
80
80
F8
80
80
F8
ENDCHAR
STARTCHAR Ecircumflex
ENCODING 202
SWIDTH 602 0
DWIDTH 6 0
BBX 5 10 1 0
BITMAP
20
50
00
F8
80
80
F8
80
80
F8
ENDCHAR
STARTCHAR Edieresis
ENCODING 203
SWIDTH 602 0
DWIDTH 6 0
BBX 5 9 1 0
BITMAP
50
00
F8
80
80
F8
80
80
F8
ENDCHAR
STARTCHAR Igrave
ENCODING 204
SWIDTH 602 0
DWIDTH 6 0
BBX 5 10 1 0
BITMAP
40
20
00
F8
20
20
20
20
20
F8
ENDCHAR
STARTCHAR Iacute
ENCODING 205
SWIDTH 602 0
DWIDTH 6 0
BBX 5 10 1 0
BITMAP
10
20
00
F8
20
20
20
20
20
F8
ENDCHAR
STARTCHAR Icircumflex
ENCODING 206
SWIDTH 602 0
DWIDTH 6 0
BBX 5 10 1 0
BITMAP
20
50
00
F8
20
20
20
20
20
F8
ENDCHAR
STARTCHAR Idieresis
ENCODING 207
SWIDTH 602 0
DWIDTH 6 0
BBX 5 9 1 0
BITMAP
50
00
F8
20
20
20
20
20
F8
ENDCHAR
STARTCHAR Eth
ENCODING 208
SWIDTH 602 0
DWIDTH 6 0
BBX 6 7 0 0
BITMAP
78
4C
44
E4
44
4C
78
ENDCHAR
STARTCHAR Ntilde
ENCODING 209
SWIDTH 602 0
DWIDTH 6 0
BBX 5 10 1 0
BITMAP
50
A0
00
88
C8
C8
A8
98
98
88
ENDCHAR
STARTCHAR Ograve
ENCODING 210
SWIDTH 602 0
DWIDTH 6 0
BBX 5 10 1 0
BITMAP
40
20
00
70
88
88
88
88
88
70
ENDCHAR
STARTCHAR Oacute
ENCODING 211
SWIDTH 602 0
DWIDTH 6 0
BBX 5 10 1 0
BITMAP
10
20
00
70
88
88
88
88
88
70
ENDCHAR
STARTCHAR Ocircumflex
ENCODING 212
SWIDTH 602 0
DWIDTH 6 0
BBX 5 10 1 0
BITMAP
20
50
00
70
88
88
88
88
88
70
ENDCHAR
STARTCHAR Otilde
ENCODING 213
SWIDTH 602 0
DWIDTH 6 0
BBX 5 10 1 0
BITMAP
50
A0
00
70
88
88
88
88
88
70
ENDCHAR
STARTCHAR Odieresis
ENCODING 214
SWIDTH 602 0
DWIDTH 6 0
BBX 5 9 1 0
BITMAP
50
00
70
88
88
88
88
88
70
ENDCHAR
STARTCHAR multiply
ENCODING 215
SWIDTH 602 0
DWIDTH 6 0
BBX 5 5 1 0
BITMAP
88
50
20
50
88
ENDCHAR
STARTCHAR Oslash
ENCODING 216
SWIDTH 602 0
DWIDTH 6 0
BBX 6 7 0 0
BITMAP
3C
44
4C
54
64
44
B8
ENDCHAR
STARTCHAR Ugrave
ENCODING 217
SWIDTH 602 0
DWIDTH 6 0
BBX 5 10 1 0
BITMAP
40
20
00
88
88
88
88
88
88
70
ENDCHAR
STARTCHAR Uacute
ENCODING 218
SWIDTH 602 0
DWIDTH 6 0
BBX 5 10 1 0
BITMAP
10
20
00
88
88
88
88
88
88
70
ENDCHAR
STARTCHAR Ucircumflex
ENCODING 219
SWIDTH 602 0
DWIDTH 6 0
BBX 5 10 1 0
BITMAP
20
50
00
88
88
88
88
88
88
70
ENDCHAR
STARTCHAR Udieresis
ENCODING 220
SWIDTH 602 0
DWIDTH 6 0
BBX 5 9 1 0
BITMAP
50
00
88
88
88
88
88
88
70
ENDCHAR
STARTCHAR Yacute
ENCODING 221
SWIDTH 602 0
DWIDTH 6 0
BBX 5 10 1 0
BITMAP
10
20
00
88
50
50
20
20
20
20
ENDCHAR
STARTCHAR Thorn
ENCODING 222
SWIDTH 602 0
DWIDTH 6 0
BBX 5 7 1 0
BITMAP
80
F0
88
88
F0
80
80
ENDCHAR
STARTCHAR germandbls
ENCODING 223
SWIDTH 602 0
DWIDTH 6 0
BBX 5 8 1 0
BITMAP
60
90
B0
A0
A0
98
88
B8
ENDCHAR
STARTCHAR agrave
ENCODING 224
SWIDTH 602 0
DWIDTH 6 0
BBX 5 8 1 0
BITMAP
80
40
00
F0
08
78
88
F8
ENDCHAR
STARTCHAR aacute
ENCODING 225
SWIDTH 602 0
DWIDTH 6 0
BBX 5 8 1 0
BITMAP
20
40
00
F0
08
78
88
F8
ENDCHAR
STARTCHAR acircumflex
ENCODING 226
SWIDTH 602 0
DWIDTH 6 0
BBX 5 8 1 0
BITMAP
40
A0
00
F0
08
78
88
F8
ENDCHAR
STARTCHAR atilde
ENCODING 227
SWIDTH 602 0
DWIDTH 6 0
BBX 5 8 1 0
BITMAP
50
A0
00
F0
08
78
88
F8
ENDCHAR
STARTCHAR adieresis
ENCODING 228
SWIDTH 602 0
DWIDTH 6 0
BBX 5 7 1 0
BITMAP
50
00
F0
08
78
88
F8
ENDCHAR
STARTCHAR aring
ENCODING 229
SWIDTH 602 0
DWIDTH 6 0
BBX 5 9 1 0
BITMAP
70
50
70
00
F0
08
78
88
F8
ENDCHAR
STARTCHAR ae
ENCODING 230
SWIDTH 602 0
DWIDTH 6 0
BBX 5 5 1 0
BITMAP
D8
28
F8
A0
D8
ENDCHAR
STARTCHAR ccedilla
ENCODING 231
SWIDTH 602 0
DWIDTH 6 0
BBX 4 7 1 -2
BITMAP
70
80
80
80
70
10
30
ENDCHAR
STARTCHAR egrave
ENCODING 232
SWIDTH 602 0
DWIDTH 6 0
BBX 5 8 1 0
BITMAP
80
40
00
70
88
F8
80
78
ENDCHAR
STARTCHAR eacute
ENCODING 233
SWIDTH 602 0
DWIDTH 6 0
BBX 5 8 1 0
BITMAP
20
40
00
70
88
F8
80
78
ENDCHAR
STARTCHAR ecircumflex
ENCODING 234
SWIDTH 602 0
DWIDTH 6 0
BBX 5 8 1 0
BITMAP
40
A0
00
70
88
F8
80
78
ENDCHAR
STARTCHAR edieresis
ENCODING 235
SWIDTH 602 0
DWIDTH 6 0
BBX 5 7 1 0
BITMAP
50
00
70
88
F8
80
78
ENDCHAR
STARTCHAR igrave
ENCODING 236
SWIDTH 602 0
DWIDTH 6 0
BBX 5 8 1 0
BITMAP
80
40
00
60
20
20
20
F8
ENDCHAR
STARTCHAR iacute
ENCODING 237
SWIDTH 602 0
DWIDTH 6 0
BBX 5 8 1 0
BITMAP
20
40
00
60
20
20
20
F8
ENDCHAR
STARTCHAR icircumflex
ENCODING 238
SWIDTH 602 0
DWIDTH 6 0
BBX 5 8 1 0
BITMAP
40
A0
00
60
20
20
20
F8
ENDCHAR
STARTCHAR idieresis
ENCODING 239
SWIDTH 602 0
DWIDTH 6 0
BBX 5 7 1 0
BITMAP
50
00
60
20
20
20
F8
ENDCHAR
STARTCHAR eth
ENCODING 240
SWIDTH 602 0
DWIDTH 6 0
BBX 5 8 1 0
BITMAP
40
70
10
78
88
88
88
70
ENDCHAR
STARTCHAR ntilde
ENCODING 241
SWIDTH 602 0
DWIDTH 6 0
BBX 5 8 1 0
BITMAP
50
A0
00
B0
C8
88
88
88
ENDCHAR
STARTCHAR ograve
ENCODING 242
SWIDTH 602 0
DWIDTH 6 0
BBX 5 8 1 0
BITMAP
80
40
00
70
88
88
88
70
ENDCHAR
STARTCHAR oacute
ENCODING 243
SWIDTH 602 0
DWIDTH 6 0
BBX 5 8 1 0
BITMAP
20
40
00
70
88
88
88
70
ENDCHAR
STARTCHAR ocircumflex
ENCODING 244
SWIDTH 602 0
DWIDTH 6 0
BBX 5 8 1 0
BITMAP
40
A0
00
70
88
88
88
70
ENDCHAR
STARTCHAR otilde
ENCODING 245
SWIDTH 602 0
DWIDTH 6 0
BBX 5 8 1 0
BITMAP
50
A0
00
70
88
88
88
70
ENDCHAR
STARTCHAR odieresis
ENCODING 246
SWIDTH 602 0
DWIDTH 6 0
BBX 5 7 1 0
BITMAP
50
00
70
88
88
88
70
ENDCHAR
STARTCHAR divide
ENCODING 247
SWIDTH 602 0
DWIDTH 6 0
BBX 5 5 0 1
BITMAP
20
00
F8
00
20
ENDCHAR
STARTCHAR oslash
ENCODING 248
SWIDTH 602 0
DWIDTH 6 0
BBX 5 5 1 0
BITMAP
78
98
A8
C8
F0
ENDCHAR
STARTCHAR ugrave
ENCODING 249
SWIDTH 602 0
DWIDTH 6 0
BBX 5 8 1 0
BITMAP
80
40
00
88
88
88
88
78
ENDCHAR
STARTCHAR uacute
ENCODING 250
SWIDTH 602 0
DWIDTH 6 0
BBX 5 8 1 0
BITMAP
20
40
00
88
88
88
88
78
ENDCHAR
STARTCHAR ucircumflex
ENCODING 251
SWIDTH 602 0
DWIDTH 6 0
BBX 5 8 1 0
BITMAP
40
A0
00
88
88
88
88
78
ENDCHAR
STARTCHAR udieresis
ENCODING 252
SWIDTH 602 0
DWIDTH 6 0
BBX 5 7 1 0
BITMAP
50
00
88
88
88
88
78
ENDCHAR
STARTCHAR yacute
ENCODING 253
SWIDTH 602 0
DWIDTH 6 0
BBX 5 10 1 -2
BITMAP
20
40
00
88
50
50
20
20
20
C0
ENDCHAR
STARTCHAR thorn
ENCODING 254
SWIDTH 602 0
DWIDTH 6 0
BBX 5 10 1 -2
BITMAP
80
80
80
F0
88
88
88
F0
80
80
ENDCHAR
STARTCHAR ydieresis
ENCODING 255
SWIDTH 602 0
DWIDTH 6 0
BBX 5 9 1 -2
BITMAP
50
00
88
50
50
20
20
20
C0
ENDCHAR
STARTCHAR .notdef
ENCODING -1
SWIDTH 602 0
DWIDTH 6 0
BBX 5 9 1 -2
BITMAP
F8
88
88
88
88
88
88
88
F8
ENDCHAR
STARTCHAR .null
ENCODING -1
SWIDTH 0 0
DWIDTH 0 0
BBX 1 1 0 0
BITMAP
00
ENDCHAR
STARTCHAR nonmarkingreturn
ENCODING -1
SWIDTH 602 0
DWIDTH 6 0
BBX 1 1 0 0
BITMAP
00
ENDCHAR
STARTCHAR dagger
ENCODING -1
SWIDTH 602 0
DWIDTH 6 0
BBX 5 8 1 -1
BITMAP
20
20
F8
20
20
20
20
20
ENDCHAR
STARTCHAR bullet
ENCODING -1
SWIDTH 602 0
DWIDTH 6 0
BBX 3 3 2 2
BITMAP
E0
E0
E0
ENDCHAR
STARTCHAR trademark
ENCODING -1
SWIDTH 602 0
DWIDTH 6 0
BBX 6 3 0 4
BITMAP
F4
5C
54
ENDCHAR
STARTCHAR notequal
ENCODING -1
SWIDTH 602 0
DWIDTH 6 0
BBX 5 7 0 0
BITMAP
08
10
F8
20
F8
40
80
ENDCHAR
STARTCHAR infinity
ENCODING -1
SWIDTH 602 0
DWIDTH 6 0
BBX 6 4 0 1
BITMAP
C8
B4
B4
CC
ENDCHAR
STARTCHAR lessequal
ENCODING -1
SWIDTH 602 0
DWIDTH 6 0
BBX 5 5 1 0
BITMAP
18
E0
E0
18
F8
ENDCHAR
STARTCHAR greaterequal
ENCODING -1
SWIDTH 602 0
DWIDTH 6 0
BBX 5 5 1 0
BITMAP
C0
38
38
C0
F8
ENDCHAR
STARTCHAR partialdiff
ENCODING -1
SWIDTH 602 0
DWIDTH 6 0
BBX 4 6 1 0
BITMAP
60
10
70
90
90
E0
ENDCHAR
STARTCHAR summation
ENCODING -1
SWIDTH 602 0
DWIDTH 6 0
BBX 5 9 1 -2
BITMAP
F8
80
40
20
10
20
40
80
F8
ENDCHAR
STARTCHAR product
ENCODING -1
SWIDTH 602 0
DWIDTH 6 0
BBX 5 9 1 -2
BITMAP
F8
88
88
88
88
88
88
88
88
ENDCHAR
STARTCHAR pi
ENCODING -1
SWIDTH 602 0
DWIDTH 6 0
BBX 6 5 0 0
BITMAP
FC
48
48
48
4C
ENDCHAR
STARTCHAR integral
ENCODING -1
SWIDTH 602 0
DWIDTH 6 0
BBX 5 9 1 -1
BITMAP
18
20
20
20
20
20
20
20
C0
ENDCHAR
STARTCHAR Omega
ENCODING -1
SWIDTH 602 0
DWIDTH 6 0
BBX 5 7 0 0
BITMAP
70
88
88
88
88
50
D8
ENDCHAR
STARTCHAR radical
ENCODING -1
SWIDTH 602 0
DWIDTH 6 0
BBX 6 9 0 0
BITMAP
04
04
08
08
C8
50
50
30
20
ENDCHAR
STARTCHAR florin
ENCODING -1
SWIDTH 602 0
DWIDTH 6 0
BBX 6 10 0 -2
BITMAP
0C
10
10
10
38
10
30
20
20
E0
ENDCHAR
STARTCHAR approxequal
ENCODING -1
SWIDTH 602 0
DWIDTH 6 0
BBX 5 4 0 1
BITMAP
E0
18
E0
18
ENDCHAR
STARTCHAR Delta
ENCODING -1
SWIDTH 602 0
DWIDTH 6 0
BBX 6 7 0 0
BITMAP
30
30
30
48
48
48
FC
ENDCHAR
STARTCHAR ellipsis
ENCODING -1
SWIDTH 602 0
DWIDTH 6 0
BBX 5 1 0 0
BITMAP
A8
ENDCHAR
STARTCHAR OE
ENCODING -1
SWIDTH 602 0
DWIDTH 6 0
BBX 5 7 1 0
BITMAP
78
A0
A0
B8
A0
A0
78
ENDCHAR
STARTCHAR oe
ENCODING -1
SWIDTH 602 0
DWIDTH 6 0
BBX 5 5 1 0
BITMAP
D8
A8
B8
A0
D8
ENDCHAR
STARTCHAR endash
ENCODING -1
SWIDTH 602 0
DWIDTH 6 0
BBX 6 1 0 2
BITMAP
FC
ENDCHAR
STARTCHAR emdash
ENCODING -1
SWIDTH 602 0
DWIDTH 6 0
BBX 6 1 0 2
BITMAP
FC
ENDCHAR
STARTCHAR quotedblleft
ENCODING -1
SWIDTH 602 0
DWIDTH 6 0
BBX 3 3 2 5
BITMAP
A0
A0
A0
ENDCHAR
STARTCHAR quotedblright
ENCODING -1
SWIDTH 602 0
DWIDTH 6 0
BBX 3 3 2 5
BITMAP
A0
A0
A0
ENDCHAR
STARTCHAR quoteleft
ENCODING -1
SWIDTH 602 0
DWIDTH 6 0
BBX 1 3 2 5
BITMAP
80
80
80
ENDCHAR
STARTCHAR quoteright
ENCODING -1
SWIDTH 602 0
DWIDTH 6 0
BBX 1 3 3 5
BITMAP
80
80
80
ENDCHAR
STARTCHAR lozenge
ENCODING -1
SWIDTH 602 0
DWIDTH 6 0
BBX 5 10 1 -2
BITMAP
20
60
50
90
88
88
90
50
60
20
ENDCHAR
STARTCHAR Ydieresis
ENCODING -1
SWIDTH 602 0
DWIDTH 6 0
BBX 5 9 1 0
BITMAP
50
00
88
50
50
20
20
20
20
ENDCHAR
STARTCHAR fraction
ENCODING -1
SWIDTH 602 0
DWIDTH 6 0
BBX 5 8 1 -1
BITMAP
08
10
10
20
20
40
40
80
ENDCHAR
STARTCHAR guilsinglleft
ENCODING -1
SWIDTH 602 0
DWIDTH 6 0
BBX 2 4 2 1
BITMAP
40
80
80
40
ENDCHAR
STARTCHAR guilsinglright
ENCODING -1
SWIDTH 602 0
DWIDTH 6 0
BBX 2 4 2 1
BITMAP
80
40
40
80
ENDCHAR
STARTCHAR fi
ENCODING -1
SWIDTH 602 0
DWIDTH 6 0
BBX 6 8 0 0
BITMAP
34
40
40
FC
44
44
44
44
ENDCHAR
STARTCHAR fl
ENCODING -1
SWIDTH 602 0
DWIDTH 6 0
BBX 6 8 0 0
BITMAP
7C
44
44
E4
44
44
44
44
ENDCHAR
STARTCHAR daggerdbl
ENCODING -1
SWIDTH 602 0
DWIDTH 6 0
BBX 5 8 1 -1
BITMAP
20
20
F8
20
20
F8
20
20
ENDCHAR
STARTCHAR quotesinglbase
ENCODING -1
SWIDTH 602 0
DWIDTH 6 0
BBX 1 3 2 -1
BITMAP
80
80
80
ENDCHAR
STARTCHAR quotedblbase
ENCODING -1
SWIDTH 602 0
DWIDTH 6 0
BBX 3 3 2 -1
BITMAP
A0
A0
A0
ENDCHAR
STARTCHAR perthousand
ENCODING -1
SWIDTH 602 0
DWIDTH 6 0
BBX 6 7 0 0
BITMAP
E0
A0
F0
C0
FC
B4
FC
ENDCHAR
STARTCHAR dotlessi
ENCODING -1
SWIDTH 602 0
DWIDTH 6 0
BBX 5 5 1 0
BITMAP
60
20
20
20
F8
ENDCHAR
STARTCHAR circumflex
ENCODING -1
SWIDTH 602 0
DWIDTH 6 0
BBX 3 2 1 6
BITMAP
40
A0
ENDCHAR
STARTCHAR tilde
ENCODING -1
SWIDTH 602 0
DWIDTH 6 0
BBX 4 2 1 6
BITMAP
50
A0
ENDCHAR
STARTCHAR breve
ENCODING -1
SWIDTH 602 0
DWIDTH 6 0
BBX 3 2 1 6
BITMAP
A0
E0
ENDCHAR
STARTCHAR dotaccent
ENCODING -1
SWIDTH 602 0
DWIDTH 6 0
BBX 1 1 3 6
BITMAP
80
ENDCHAR
STARTCHAR ring
ENCODING -1
SWIDTH 602 0
DWIDTH 6 0
BBX 3 3 2 6
BITMAP
E0
A0
E0
ENDCHAR
STARTCHAR hungarumlaut
ENCODING -1
SWIDTH 602 0
DWIDTH 6 0
BBX 4 2 2 6
BITMAP
50
A0
ENDCHAR
STARTCHAR ogonek
ENCODING -1
SWIDTH 602 0
DWIDTH 6 0
BBX 2 2 2 -2
BITMAP
80
C0
ENDCHAR
STARTCHAR caron
ENCODING -1
SWIDTH 602 0
DWIDTH 6 0
BBX 3 2 1 6
BITMAP
A0
40
ENDCHAR
STARTCHAR Lslash
ENCODING -1
SWIDTH 602 0
DWIDTH 6 0
BBX 6 7 0 0
BITMAP
40
40
50
60
C0
40
7C
ENDCHAR
STARTCHAR lslash
ENCODING -1
SWIDTH 602 0
DWIDTH 6 0
BBX 4 8 1 0
BITMAP
C0
40
50
60
C0
40
40
30
ENDCHAR
STARTCHAR Scaron
ENCODING -1
SWIDTH 602 0
DWIDTH 6 0
BBX 5 10 1 0
BITMAP
50
20
00
70
88
80
70
08
88
70
ENDCHAR
STARTCHAR scaron
ENCODING -1
SWIDTH 602 0
DWIDTH 6 0
BBX 5 8 1 0
BITMAP
A0
40
00
78
80
78
08
F0
ENDCHAR
STARTCHAR Zcaron
ENCODING -1
SWIDTH 602 0
DWIDTH 6 0
BBX 5 10 1 0
BITMAP
50
20
00
F8
10
10
20
40
40
F8
ENDCHAR
STARTCHAR zcaron
ENCODING -1
SWIDTH 602 0
DWIDTH 6 0
BBX 5 8 1 0
BITMAP
A0
40
00
F8
10
20
40
F8
ENDCHAR
STARTCHAR minus
ENCODING -1
SWIDTH 602 0
DWIDTH 6 0
BBX 5 1 0 3
BITMAP
F8
ENDCHAR
STARTCHAR Gbreve
ENCODING -1
SWIDTH 602 0
DWIDTH 6 0
BBX 5 10 1 0
BITMAP
A0
E0
00
70
C8
80
98
88
C8
78
ENDCHAR
STARTCHAR gbreve
ENCODING -1
SWIDTH 602 0
DWIDTH 6 0
BBX 5 10 1 -2
BITMAP
A0
E0
00
78
88
88
88
78
08
70
ENDCHAR
STARTCHAR Idotaccent
ENCODING -1
SWIDTH 602 0
DWIDTH 6 0
BBX 5 9 1 0
BITMAP
20
00
F8
20
20
20
20
20
F8
ENDCHAR
STARTCHAR Scedilla
ENCODING -1
SWIDTH 602 0
DWIDTH 6 0
BBX 5 9 1 -2
BITMAP
70
88
80
70
08
88
70
20
60
ENDCHAR
STARTCHAR scedilla
ENCODING -1
SWIDTH 602 0
DWIDTH 6 0
BBX 5 7 1 -2
BITMAP
78
80
78
08
F0
20
60
ENDCHAR
STARTCHAR Cacute
ENCODING -1
SWIDTH 602 0
DWIDTH 6 0
BBX 5 10 1 0
BITMAP
10
20
00
78
C8
80
80
80
C8
78
ENDCHAR
STARTCHAR cacute
ENCODING -1
SWIDTH 602 0
DWIDTH 6 0
BBX 4 8 1 0
BITMAP
20
40
00
70
80
80
80
70
ENDCHAR
STARTCHAR Ccaron
ENCODING -1
SWIDTH 602 0
DWIDTH 6 0
BBX 5 10 1 0
BITMAP
50
20
00
78
C8
80
80
80
C8
78
ENDCHAR
STARTCHAR ccaron
ENCODING -1
SWIDTH 602 0
DWIDTH 6 0
BBX 4 8 1 0
BITMAP
A0
40
00
70
80
80
80
70
ENDCHAR
STARTCHAR dcroat
ENCODING -1
SWIDTH 602 0
DWIDTH 6 0
BBX 6 8 1 0
BITMAP
08
1C
08
78
88
88
88
78
ENDCHAR
STARTCHAR periodcentered
ENCODING -1
SWIDTH 602 0
DWIDTH 6 0
BBX 1 2 2 2
BITMAP
80
80
ENDCHAR
STARTCHAR Euro
ENCODING -1
SWIDTH 602 0
DWIDTH 6 0
BBX 5 7 0 0
BITMAP
38
40
F0
40
F0
40
38
ENDCHAR
STARTCHAR c6459
ENCODING -1
SWIDTH 602 0
DWIDTH 6 0
BBX 3 1 2 6
BITMAP
A0
ENDCHAR
STARTCHAR c6460
ENCODING -1
SWIDTH 602 0
DWIDTH 6 0
BBX 2 2 3 6
BITMAP
40
80
ENDCHAR
STARTCHAR c6461
ENCODING -1
SWIDTH 602 0
DWIDTH 6 0
BBX 4 2 1 6
BITMAP
50
A0
ENDCHAR
STARTCHAR c6468
ENCODING -1
SWIDTH 602 0
DWIDTH 6 0
BBX 2 2 2 6
BITMAP
80
40
ENDCHAR
STARTCHAR c6470
ENCODING -1
SWIDTH 602 0
DWIDTH 6 0
BBX 3 2 2 6
BITMAP
40
A0
ENDCHAR
STARTCHAR c6472
ENCODING -1
SWIDTH 602 0
DWIDTH 6 0
BBX 3 2 2 6
BITMAP
A0
40
ENDCHAR
STARTCHAR c6477
ENCODING -1
SWIDTH 602 0
DWIDTH 6 0
BBX 5 2 0 2
BITMAP
38
E0
ENDCHAR
STARTCHAR c6478
ENCODING -1
SWIDTH 602 0
DWIDTH 6 0
BBX 4 4 1 3
BITMAP
20
E0
F0
20
ENDCHAR
STARTCHAR c6475
ENCODING -1
SWIDTH 602 0
DWIDTH 6 0
BBX 3 2 1 6
BITMAP
A0
E0
ENDCHAR
STARTCHAR c6476
ENCODING -1
SWIDTH 602 0
DWIDTH 6 0
BBX 1 1 3 6
BITMAP
80
ENDCHAR
ENDFONT
